<svg id="visual" viewBox="0 0 960 540" width="960" height="540" xmlns="http://www.w3.org/2000/svg" xmlns:xlink="http://www.w3.org/1999/xlink" version="1.1"><path d="M0 44L16 44C32 44 64 44 96 54C128 64 160 84 192 94.8C224 105.7 256 107.3 288 98.3C320 89.3 352 69.7 384 63.3C416 57 448 64 480 67.5C512 71 544 71 576 71C608 71 640 71 672 70.2C704 69.3 736 67.7 768 74C800 80.3 832 94.7 864 91C896 87.3 928 65.7 944 54.8L960 44L960 0L944 0C928 0 896 0 864 0C832 0 800 0 768 0C736 0 704 0 672 0C640 0 608 0 576 0C544 0 512 0 480 0C448 0 416 0 384 0C352 0 320 0 288 0C256 0 224 0 192 0C160 0 128 0 96 0C64 0 32 0 16 0L0 0Z" fill="#b887f8"></path><path d="M0 174L16 185.7C32 197.3 64 220.7 96 245C128 269.3 160 294.7 192 286.5C224 278.3 256 236.7 288 224C320 211.3 352 227.7 384 242.2C416 256.7 448 269.3 480 276.5C512 283.7 544 285.3 576 278.2C608 271 640 255 672 248.7C704 242.3 736 245.7 768 245.7C800 245.7 832 242.3 864 237C896 231.7 928 224.3 944 220.7L960 217L960 42L944 52.8C928 63.7 896 85.3 864 89C832 92.7 800 78.3 768 72C736 65.7 704 67.3 672 68.2C640 69 608 69 576 69C544 69 512 69 480 65.5C448 62 416 55 384 61.3C352 67.7 320 87.3 288 96.3C256 105.3 224 103.7 192 92.8C160 82 128 62 96 52C64 42 32 42 16 42L0 42Z" fill="#cd97f8"></path><path d="M0 228L16 239.7C32 251.3 64 274.7 96 299.8C128 325 160 352 192 345.7C224 339.3 256 299.7 288 283.5C320 267.3 352 274.7 384 284.7C416 294.7 448 307.3 480 315.3C512 323.3 544 326.7 576 323.8C608 321 640 312 672 307.5C704 303 736 303 768 306.7C800 310.3 832 317.7 864 318.7C896 319.7 928 314.3 944 311.7L960 309L960 215L944 218.7C928 222.3 896 229.7 864 235C832 240.3 800 243.7 768 243.7C736 243.7 704 240.3 672 246.7C640 253 608 269 576 276.2C544 283.3 512 281.7 480 274.5C448 267.3 416 254.7 384 240.2C352 225.7 320 209.3 288 222C256 234.7 224 276.3 192 284.5C160 292.7 128 267.3 96 243C64 218.7 32 195.3 16 183.7L0 172Z" fill="#dfa9f8"></path><path d="M0 433L16 434.8C32 436.7 64 440.3 96 448.5C128 456.7 160 469.3 192 464.8C224 460.3 256 438.7 288 437.7C320 436.7 352 456.3 384 459C416 461.7 448 447.3 480 450C512 452.7 544 472.3 576 473.2C608 474 640 456 672 449.8C704 443.7 736 449.3 768 445.8C800 442.3 832 429.7 864 424.2C896 418.7 928 420.3 944 421.2L960 422L960 307L944 309.7C928 312.3 896 317.7 864 316.7C832 315.7 800 308.3 768 304.7C736 301 704 301 672 305.5C640 310 608 319 576 321.8C544 324.7 512 321.3 480 313.3C448 305.3 416 292.7 384 282.7C352 272.7 320 265.3 288 281.5C256 297.7 224 337.3 192 343.7C160 350 128 323 96 297.8C64 272.7 32 249.3 16 237.7L0 226Z" fill="#edbcf9"></path><path d="M0 541L16 541C32 541 64 541 96 541C128 541 160 541 192 541C224 541 256 541 288 541C320 541 352 541 384 541C416 541 448 541 480 541C512 541 544 541 576 541C608 541 640 541 672 541C704 541 736 541 768 541C800 541 832 541 864 541C896 541 928 541 944 541L960 541L960 420L944 419.2C928 418.3 896 416.7 864 422.2C832 427.7 800 440.3 768 443.8C736 447.3 704 441.7 672 447.8C640 454 608 472 576 471.2C544 470.3 512 450.7 480 448C448 445.3 416 459.7 384 457C352 454.3 320 434.7 288 435.7C256 436.7 224 458.3 192 462.8C160 467.3 128 454.7 96 446.5C64 438.3 32 434.7 16 432.8L0 431Z" fill="#f9cffc"></path></svg>